
        <svg xmlns="http://www.w3.org/2000/svg" xmlns:xlink="http://www.w3.org/1999/xlink" version="1.1" width="3208.3333333333335" 
        height="873.9583333333333" viewBox="0 0 3208.3333333333335 873.9583333333333">
			
			<g transform="scale(10.416666666666666) translate(10, 10)">
				<defs id="SvgjsDefs2324"></defs><g id="SvgjsG2325" featureKey="symbolContainer" transform="matrix(0.8999999761581421,0,0,0.8999999761581421,0,0)" fill="#ff9999"><rect xmlns="http://www.w3.org/2000/svg" width="75" height="71" rx="10" ry="10"></rect></g><g id="SvgjsG2326" featureKey="monogramFeature-0" transform="matrix(0.7273035645484924,0,0,0.7273035645484924,13.81843279942482,3.3339424556753006)" fill="#ffffff"><path d="M41.414 20.061 c4.674 0.047051 9.8868 0.42106 9.7038 0.96384 c-1.0468 6.1488 -1.9175 12.405 -2.6465 18.683 c-0.72198 6.2808 -1.3093 12.594 -1.6696 18.921 c-0.10108 1.3729 -5.1889 1.8953 -5.6884 0.51733 c-1.3493 -5.6744 -2.5086 -11.392 -3.5573 -17.14 l-7.749 10.557 c0.027949 0.14619 0.060354 0.28981 0.087654 0.436 c0.23514 1.397 -4.6607 2.8791 -5.4139 1.8221 c-2.2124 -4.149 -4.885 -8.1378 -7.6362 -12.185 c-1.0525 5.5931 -2.2976 11.122 -3.7511 16.563 c-0.37752 1.3347 -5.4551 0.7233 -5.675 -0.64956 c-0.45252 -12.345 -1.9448 -24.5 -4.4134 -36.295 c-0.15 -0.38894 2.7755 -0.78936 6.2262 -1.0481 c4.7318 -1.7555 11.576 -3.7429 11.558 -3.183 c0.83706 5.3216 2.5315 11.066 4.2799 16.881 c0.64254 2.161 1.3099 4.3397 1.955 6.546 l7.884 -23.951 c0.06867 -0.43793 3.1525 0.88722 6.5058 2.5601 z"></path></g><g id="SvgjsG2327" featureKey="nameFeature-0" transform="matrix(0.9132935404777527,0,0,0.9132935404777527,86.53822915172928,8.04141106752472)" fill="#444f5a"><path d="M23.698 31.9008 c0 0.00054688 0 0.0010938 0.00054688 0.0016406 l0 5.9014 c0 1.2128 -0.98328 2.196 -2.196 2.196 s-2.196 -0.98328 -2.196 -2.196 l0 -4.9925 l-13.314 -13.314 l0 18.306 c0 1.2128 -0.98328 2.196 -2.196 2.196 s-2.196 -0.98328 -2.196 -2.196 l0 -23.608 c0 -0.88832 0.535 -1.6891 1.3555 -2.0289 c0.82104 -0.33957 1.7654 -0.15207 2.3932 0.476 l7.3 7.3 l7.3 -7.3 c0.6278 -0.62808 1.5726 -0.8164 2.3932 -0.476 c0.82052 0.33984 1.3555 1.1406 1.3555 2.0289 l0 17.705 z M15.755 23.049 l3.5513 3.551 l0 -7.1024 z M35.678 19.412 c5.6764 0 10.294 4.6176 10.294 10.294 s-4.6176 10.294 -10.294 10.294 s-10.294 -4.6176 -10.294 -10.294 s4.6176 -10.294 10.294 -10.294 z M35.678 35.608 c3.2543 0 5.902 -2.6476 5.902 -5.902 s-2.6476 -5.902 -5.902 -5.902 s-5.902 2.6476 -5.902 5.902 s2.6476 5.902 5.902 5.902 z M65.023 19.644 c1.0846 0.54216 1.5243 1.8614 0.98192 2.946 l-8.098 16.196 c-0.37195 0.74392 -1.1324 1.2139 -1.9641 1.2139 s-1.5922 -0.46996 -1.9641 -1.2139 l-8.098 -16.196 c-0.5424 -1.0848 -0.10266 -2.4039 0.98192 -2.9463 c1.0848 -0.5424 2.4039 -0.10293 2.9463 0.9822 l6.134 12.268 l6.134 -12.267 c0.54216 -1.0851 1.8612 -1.5241 2.9463 -0.9822 z M70.108 19.412 c1.2128 0 2.196 0.98328 2.196 2.196 l0 16.196 c0 1.2128 -0.98328 2.196 -2.196 2.196 s-2.196 -0.98328 -2.196 -2.196 l0 -16.196 c0 -1.2128 0.98328 -2.196 2.196 -2.196 z M68.07939999999999 15.036000000000001 c-0.054884 -0.13176 -0.096056 -0.2718 -0.12352 -0.4118 c-0.030195 -0.14 -0.043908 -0.28551 -0.043908 -0.42824 s0.013711 -0.28824 0.043908 -0.42824 c0.027461 -0.14 0.068632 -0.28 0.12352 -0.41176 s0.12352 -0.26078 0.20312 -0.37883 c0.079608 -0.12078 0.1702 -0.23332 0.27176 -0.33488 s0.2141 -0.19215 0.33488 -0.27176 c0.11805 -0.079608 0.24707 -0.14824 0.37883 -0.20312 s0.27176 -0.096056 0.41176 -0.12352 c0.71372 -0.14551 1.4714 0.090588 1.982 0.59844 c0.098828 0.10156 0.19215 0.2141 0.27176 0.33488 c0.079608 0.11805 0.14824 0.24707 0.20312 0.37883 s0.096056 0.27176 0.12352 0.41176 c0.030195 0.14 0.043908 0.28551 0.043908 0.42824 s-0.013711 0.28824 -0.043908 0.42824 c-0.027461 0.14 -0.068632 0.28 -0.12352 0.41176 s-0.12352 0.26078 -0.20312 0.37883 c-0.079608 0.12078 -0.17293 0.23332 -0.27176 0.33488 c-0.10156 0.10156 -0.2141 0.19215 -0.33488 0.27176 c-0.11805 0.079608 -0.24707 0.14824 -0.37883 0.20312 s-0.27176 0.096056 -0.41176 0.12352 c-0.14 0.030195 -0.28551 0.043908 -0.42824 0.043908 s-0.28824 -0.013711 -0.42824 -0.043908 c-0.14 -0.027461 -0.28 -0.068632 -0.41176 -0.12352 s-0.26078 -0.12352 -0.37883 -0.20312 c-0.12078 -0.079608 -0.23332 -0.1702 -0.33488 -0.27176 s-0.19215 -0.2141 -0.27176 -0.33488 c-0.079608 -0.11805 -0.14824 -0.24707 -0.20312 -0.37883 z M84.31 19.412 c5.6764 0 10.294 4.6176 10.294 10.294 c0 1.2128 -0.98328 2.196 -2.196 2.196 l-13.576 0 c0.87292 2.17 2.9995 3.7059 5.4784 3.7059 c1.5765 0 3.0586 -0.6138 4.1732 -1.7286 c0.85784 -0.85756 2.248 -0.85732 3.1058 0 c0.85784 0.85784 0.85756 2.2482 0 3.1058 c-1.9446 1.9443 -4.5296 3.0149 -7.2792 3.0149 c-5.6764 0 -10.294 -4.6176 -10.294 -10.294 s4.6176 -10.294 10.294 -10.294 z M78.8316 27.509999999999998 l10.957 0 c-0.87292 -2.17 -2.9995 -3.7059 -5.4784 -3.7059 s-4.6056 1.5359 -5.4784 3.7059 z M125.666 27.345 c1.213 0 2.196 0.98328 2.196 2.196 c0 5.7668 -4.692 10.459 -10.459 10.459 s-10.459 -4.692 -10.459 -10.459 l0 -7.0824 c0 -5.7668 4.692 -10.459 10.459 -10.459 s10.459 4.692 10.459 10.459 c0 1.2128 -0.98328 2.196 -2.196 2.196 s-2.196 -0.98328 -2.196 -2.196 c0 -3.3452 -2.7215 -6.0668 -6.0668 -6.0668 s-6.0668 2.7215 -6.0668 6.0668 l0 7.0824 c0 3.3452 2.7215 6.0668 6.0668 6.0668 s6.0668 -2.7215 6.0668 -6.0668 c0 -1.2128 0.98328 -2.196 2.196 -2.196 z M139.795 19.467 c5.6612 0 10.267 4.6056 10.267 10.267 l0 8.0706 c0 1.2128 -0.98328 2.196 -2.196 2.196 s-2.196 -0.98328 -2.196 -2.196 l0 -8.0706 c0 -3.2392 -2.6353 -5.8744 -5.8744 -5.8744 s-5.8744 2.6353 -5.8744 5.8744 l0 8.0706 c0 1.2128 -0.98328 2.196 -2.196 2.196 s-2.196 -0.98328 -2.196 -2.196 l0 -23.608 c0 -1.2128 0.98328 -2.196 2.196 -2.196 s2.196 0.98328 2.196 2.196 l0 7.1246 c1.6657 -1.1667 3.6908 -1.8541 5.8744 -1.8541 z M162.006 19.412 c5.6764 0 10.294 4.6176 10.294 10.294 c0 1.2128 -0.98328 2.196 -2.196 2.196 l-13.576 0 c0.87292 2.17 2.9995 3.7059 5.4784 3.7059 c1.5765 0 3.0586 -0.6138 4.1732 -1.7286 c0.85784 -0.85756 2.248 -0.85732 3.1058 0 c0.85784 0.85784 0.85756 2.2482 0 3.1058 c-1.9446 1.9443 -4.5296 3.0149 -7.2792 3.0149 c-5.6764 0 -10.294 -4.6176 -10.294 -10.294 s4.6176 -10.294 10.294 -10.294 z M156.5276 27.509999999999998 l10.957 0 c-0.87292 -2.17 -2.9995 -3.7059 -5.4784 -3.7059 s-4.6056 1.5359 -5.4784 3.7059 z M198.292 19.644 c1.0846 0.54216 1.524 1.8614 0.9816 2.9463 l-8.098 16.196 c-0.37195 0.74392 -1.1324 1.2139 -1.9641 1.2139 s-1.5924 -0.46996 -1.9641 -1.2139 l-1.5062 -3.0127 l-1.5062 3.0127 c-0.37195 0.74392 -1.1324 1.2139 -1.9641 1.2139 s-1.5922 -0.46996 -1.9641 -1.2139 l-8.098 -16.196 c-0.5424 -1.0848 -0.10266 -2.4039 0.98192 -2.9463 c1.0848 -0.5424 2.4039 -0.10293 2.9463 0.9822 l6.134 12.268 l6.134 -12.268 c0.54216 -1.0851 1.8614 -1.5241 2.9463 -0.9822 c1.0846 0.5424 1.5243 1.8614 0.98192 2.9463 l-4.1364 8.2728 l1.0151 2.0306 l6.134 -12.268 c0.54216 -1.0851 1.8612 -1.5241 2.9463 -0.9822 z M214.343 27.509999999999998 c3.4434 0 6.2452 2.8016 6.2452 6.2452 s-2.8016 6.2452 -6.2452 6.2452 l-8.098 0 c-1.2128 0 -2.196 -0.98328 -2.196 -2.196 s0.98328 -2.196 2.196 -2.196 l8.098 0 c1.0217 0 1.8529 -0.8312 1.8529 -1.8529 s-0.8312 -1.8529 -1.8529 -1.8529 l-8.098 0 c-3.4434 0 -6.2452 -2.8016 -6.2452 -6.2452 s2.8016 -6.2452 6.2452 -6.2452 l8.098 0 c1.2128 0 2.196 0.98328 2.196 2.196 s-0.98328 2.196 -2.196 2.196 l-8.098 0 c-1.0217 0 -1.8529 0.8312 -1.8529 1.8529 s0.8312 1.8529 1.8529 1.8529 l8.098 0 z"></path></g>
			</g>
		</svg>
	